<?xml version="1.0" encoding="UTF-8" standalone="no"?>
<!DOCTYPE svg PUBLIC "-//W3C//DTD SVG 1.1//EN" "http://www.w3.org/Graphics/SVG/1.1/DTD/svg11.dtd">
<svg width="100%" height="100%" viewBox="0 0 167 180" version="1.1" xmlns="http://www.w3.org/2000/svg" xmlns:xlink="http://www.w3.org/1999/xlink" xml:space="preserve" xmlns:serif="http://www.serif.com/" style="fill-rule:evenodd;clip-rule:evenodd;stroke-linejoin:round;stroke-miterlimit:2;">
    <g transform="matrix(1,0,0,1,-39.335417,-28.476667)">
        <g transform="matrix(4.166667,0,0,4.166667,0,0)">
            <g transform="matrix(1,0,0,1,18.0814,32.6148)">
                <path d="M0,0.913C0.075,1.132 0.367,1.65 0.907,1.858C1.323,1.941 0.887,-0.594 0.887,-0.594C0.855,-0.74 0.831,-0.885 0.807,-1.028C0.351,-0.736 -0.04,-0.449 -0.353,-0.176C-0.248,0.168 -0.135,0.519 0,0.913" style="fill:rgb(198,228,225);fill-rule:nonzero;"/>
            </g>
        </g>
        <g transform="matrix(4.166667,0,0,4.166667,0,0)">
            <g transform="matrix(1,0,0,1,17.3457,14.8722)">
                <path d="M0,16.155C0.642,15.768 1.166,15.509 1.407,15.396C1.373,14.7 1.4,14.163 1.4,13.995C1.401,13.127 1.552,12.747 1.716,12.333C3.521,7.767 5.49,4.466 9.631,1.779C9.818,1.701 9.936,1.627 10.255,1.696C11.635,1.995 14.172,3.553 15.637,4.453C17.398,5.536 19.668,6.993 20.772,8.802C21.267,9.614 21.619,10.364 21.776,11.308C21.816,11.552 21.872,11.801 21.926,12.048C22.328,12.128 22.795,12.224 23.308,12.351C23.193,11.073 23.147,10.781 22.839,9.328C22.434,7.416 20.09,5.725 18.597,4.618C16.689,3.202 14.608,2.023 12.447,1.038C11.745,0.718 10.714,0.072 9.931,0.039C9.013,0 7.802,1.264 7.137,1.824C5.6,3.121 4.26,4.64 3.098,6.278C1.638,8.337 0.188,10.802 -0.441,13.282C-0.621,13.993 -0.307,14.761 -0.156,15.466C-0.104,15.712 -0.052,15.935 0,16.155" style="fill:rgb(198,228,225);fill-rule:nonzero;"/>
            </g>
        </g>
        <g transform="matrix(4.166667,0,0,4.166667,0,0)">
            <g transform="matrix(1,0,0,1,40.2944,28.3961)">
                <path d="M0,1.97C0.268,2.051 0.502,1.853 0.466,0.444C0.072,0.252 -0.339,0.076 -0.75,-0.081C-0.614,0.805 -0.505,1.819 0,1.97" style="fill:rgb(198,228,225);fill-rule:nonzero;"/>
            </g>
        </g>
        <g transform="matrix(4.166667,0,0,4.166667,0,0)">
            <g transform="matrix(1,0,0,1,23.164,8.1781)">
                <path d="M0,5.774C-0.051,5.774 -0.083,5.764 -0.084,5.764C-0.193,5.708 -0.498,5.323 -0.851,4.877C-1.592,3.941 -2.709,2.53 -4.032,1.595C-4.12,1.204 -4.071,0.886 -3.886,0.648C-3.71,0.423 -3.465,0.347 -3.414,0.346C-3.305,0.401 -3.243,0.433 -3.172,0.433C-3.095,0.433 -3.028,0.396 -2.973,0.324C-2.902,0.232 -2.54,0 -2.103,0C-2.007,0 -1.913,0.012 -1.824,0.035C-1.35,0.158 -0.829,0.68 -0.356,1.506C0.41,2.842 0.822,4.506 0.563,5.214C0.385,5.701 0.134,5.774 0,5.774" style="fill:rgb(198,228,225);fill-rule:nonzero;"/>
            </g>
        </g>
        <g transform="matrix(4.166667,0,0,4.166667,0,0)">
            <g transform="matrix(1,0,0,1,30.2486,6.8344)">
                <path d="M0,5.99C-0.024,5.99 -0.048,5.986 -0.072,5.977C-0.331,5.88 -0.753,5.553 -1.057,5.113C-1.687,4.203 -1.738,1.765 -1.741,1.49C-1.747,1.035 -1.585,0.596 -1.307,0.314C-1.108,0.113 -0.867,0.006 -0.609,0.006L-0.482,0C-0.332,0 0.201,0.088 0.773,1.228C1.148,1.975 1.206,3.242 1.162,3.441C1.075,3.826 0.486,5.221 0.206,5.848C0.167,5.934 0.086,5.99 0,5.99" style="fill:rgb(198,228,225);fill-rule:nonzero;"/>
            </g>
        </g>
        <g transform="matrix(4.166667,0,0,4.166667,0,0)">
            <g transform="matrix(1,0,0,1,16.5199,14.7997)">
                <path d="M0,3.697C-2.184,3.697 -3.245,2.163 -3.289,2.098C-3.628,1.597 -3.364,1.389 -3.352,1.38L-3.256,1.307L-3.339,1.217C-3.352,1.204 -3.645,0.887 -3.179,0.278C-3.038,0.093 -2.802,0 -2.476,0C-1.852,0 -1.006,0.349 -0.423,0.676C0.285,0.749 2.058,1.052 2.29,1.73C2.475,2.271 2.453,3.134 1.826,3.359C1.199,3.583 0.585,3.697 0,3.697Z" style="fill:rgb(198,228,225);fill-rule:nonzero;"/>
            </g>
        </g>
        <g transform="matrix(4.166667,0,0,4.166667,0,0)">
            <g transform="matrix(1,0,0,1,37.4205,10.3094)">
                <path d="M0,5.114C-0.193,5.088 -0.931,4.933 -1.087,4.047C-1.313,2.77 -0.135,1.097 1.108,0.335C1.465,0.116 1.839,0 2.189,0C2.562,0 2.894,0.132 3.077,0.353C3.178,0.476 3.22,0.615 3.196,0.744L3.165,0.907L3.662,0.792C3.694,0.958 3.713,1.232 3.583,1.385C2.265,2.935 0.29,4.837 0,5.114" style="fill:rgb(198,228,225);fill-rule:nonzero;"/>
            </g>
        </g>
        <g transform="matrix(4.166667,0,0,4.166667,0,0)">
            <g transform="matrix(0,-1,-1,0,12.0135,28.8724)">
                <path d="M-2.573,-2.573C-1.154,-2.573 0,-1.419 0,0C0,1.419 -1.154,2.573 -2.573,2.573C-3.992,2.573 -5.146,1.419 -5.146,0C-5.146,-1.419 -3.992,-2.573 -2.573,-2.573" style="fill:rgb(62,183,171);fill-rule:nonzero;"/>
            </g>
        </g>
        <g transform="matrix(4.166667,0,0,4.166667,0,0)">
            <g transform="matrix(1,0,0,1,21.7607,37.484)">
                <path d="M0,2.883C-3.512,0.503 -5.265,-1.779 -5.218,-3.722C-5.183,-5.173 -1.741,-6.877 -1.588,-6.964C-1.583,-6.967 -1.579,-6.969 -1.574,-6.972C-1.462,-7.034 -1.422,-7.174 -1.483,-7.285C-1.544,-7.397 -1.671,-7.401 -1.795,-7.378C-2.055,-7.331 -2.751,-7.022 -2.751,-7.022C-2.751,-7.022 -7.843,-4.778 -8.406,-1.449C-8.922,1.605 -7.199,5.52 -3.197,10.203C-3.151,10.256 -3.086,10.284 -3.021,10.284C-2.975,10.284 -2.928,10.27 -2.888,10.241C-2.79,10.172 -2.761,10.04 -2.821,9.937L-3.1,9.456C-4.623,6.839 -5.938,4.578 -5.272,3.62C-4.77,2.899 -3.102,2.795 -0.169,3.302C-0.058,3.321 0.045,3.262 0.085,3.161C0.126,3.06 0.09,2.944 0,2.883" style="fill:rgb(62,183,171);fill-rule:nonzero;"/>
            </g>
        </g>
        <g transform="matrix(4.166667,0,0,4.166667,0,0)">
            <g transform="matrix(-0.999382,0.035165,0.035165,0.999382,46.981588,29.142109)">
                <path d="M0.091,-5.146C1.51,-5.146 2.665,-3.99 2.665,-2.572C2.665,-1.153 1.51,0.002 0.091,0.002C-1.327,0.001 -2.483,-1.153 -2.483,-2.572C-2.483,-3.991 -1.327,-5.146 0.091,-5.146" style="fill:rgb(244,160,81);fill-rule:nonzero;"/>
            </g>
        </g>
        <g transform="matrix(4.166667,0,0,4.166667,0,0)">
            <g transform="matrix(1,0,0,1,38.677,43.694)">
                <path d="M0,-16.602C-0.239,-16.65 -0.613,-16.709 -0.784,-16.696C-0.906,-16.686 -1.026,-16.651 -1.058,-16.531C-1.091,-16.412 -1.023,-16.288 -0.906,-16.25C-0.854,-16.234 5.5,-14.629 4.902,-11.95C4.643,-10.793 3.391,-8.618 1.924,-6.779C1.862,-6.702 1.856,-6.594 1.91,-6.511C1.962,-6.428 2.057,-6.385 2.159,-6.41C2.251,-6.432 2.38,-6.489 2.56,-6.569C3.104,-6.811 4.118,-7.263 4.529,-6.843C4.881,-6.484 5.127,-5.146 2.816,-0.223C2.765,-0.113 2.808,0.019 2.915,0.077C2.952,0.098 2.993,0.107 3.034,0.106C3.108,0.103 3.179,0.065 3.221,-0.002C6.553,-5.264 7.915,-8.336 7.92,-10.605C7.933,-15.244 2.209,-16.16 0,-16.602" style="fill:rgb(244,160,81);fill-rule:nonzero;"/>
            </g>
        </g>
        <g transform="matrix(4.166667,0,0,4.166667,0,0)">
            <g transform="matrix(0.999707,-0.024195,-0.024195,-0.999707,30.751572,39.598238)">
                <path d="M-0.068,-0.001C1.47,-0.001 2.722,1.25 2.722,2.789C2.722,4.327 1.47,5.58 -0.068,5.579C-1.606,5.579 -2.858,4.327 -2.858,2.789C-2.857,1.25 -1.606,-0.001 -0.068,-0.001" style="fill:rgb(75,74,139);fill-rule:nonzero;"/>
            </g>
        </g>
        <g transform="matrix(4.166667,0,0,4.166667,0,0)">
            <g transform="matrix(1,0,0,1,40.2872,49.7453)">
                <path d="M0,-12.277C-0.063,-12.362 -0.176,-12.392 -0.276,-12.352C-9.228,-8.575 -14.829,-8.849 -17.22,-8.967L-17.702,-8.989C-17.82,-8.979 -17.909,-8.92 -17.935,-8.815C-17.962,-8.708 -17.911,-8.598 -17.813,-8.55C-15.407,-7.372 -12.131,-7.135 -10.573,-7.092C-12.053,-6.225 -15.428,-4.029 -18.867,-0.274C-18.944,-0.191 -18.948,-0.063 -18.877,0.026C-18.831,0.084 -18.761,0.115 -18.691,0.113C-18.653,0.112 -18.616,0.102 -18.582,0.082C-9.357,-5.166 -4.293,-5.951 -1.647,-2.532C-1.579,-2.445 -1.457,-2.419 -1.357,-2.47C-1.257,-2.522 -1.21,-2.639 -1.245,-2.746C-2.554,-6.781 -4.442,-7.915 -5.574,-8.22C-4.204,-8.825 -1.511,-10.172 -0.007,-11.991C0.061,-12.073 0.064,-12.192 0,-12.277" style="fill:rgb(75,74,139);fill-rule:nonzero;"/>
            </g>
        </g>
        <g transform="matrix(4.166667,0,0,4.166667,0,0)">
            <g transform="matrix(1,0,0,1,28.4133,21.6938)">
                <path d="M0,4.873C1.343,4.873 2.436,3.78 2.436,2.436C2.436,1.093 1.343,0 0,0C-1.343,0 -2.436,1.093 -2.436,2.436C-2.436,3.78 -1.343,4.873 0,4.873" style="fill:rgb(237,112,3);fill-rule:nonzero;"/>
            </g>
        </g>
        <g transform="matrix(4.166667,0,0,4.166667,0,0)">
            <g transform="matrix(1,0,0,1,38.2287,29.3098)">
                <path d="M0,3.871C-3.164,1.235 -5.338,0.175 -6.394,-0.231C-5.182,-0.6 -2.71,-1.374 -1.279,-1.974C-1.181,-2.015 -1.125,-2.117 -1.14,-2.221C-1.155,-2.326 -1.24,-2.407 -1.345,-2.417C-3.671,-2.658 -9.872,-2.869 -17.215,0.367C-17.311,0.409 -17.366,0.511 -17.35,0.615C-17.334,0.718 -17.249,0.798 -17.145,0.808C-15.567,0.97 -13.978,0.853 -13.016,0.744C-13.856,1.511 -15.13,3.182 -15.553,6.48C-15.566,6.589 -15.502,6.692 -15.399,6.728C-15.374,6.736 -15.348,6.74 -15.323,6.74C-15.243,6.74 -15.167,6.699 -15.125,6.628C-12.912,2.921 -7.456,0.751 -0.249,4.257C-0.143,4.308 -0.017,4.272 0.046,4.174C0.11,4.076 0.089,3.946 0,3.871" style="fill:rgb(237,112,3);fill-rule:nonzero;"/>
            </g>
        </g>
    </g>
</svg>
