<svg width="24" height="24" viewBox="0 0 24 24" fill="none" xmlns="http://www.w3.org/2000/svg">
<g clip-path="url(#clip0_74_43)">
<path d="M1.71997 9.95C1.71997 10.2717 1.78334 10.5903 1.90647 10.8876C2.02959 11.1848 2.21006 11.4549 2.43756 11.6824C2.66506 11.9099 2.93515 12.0904 3.2324 12.2135C3.52964 12.3366 3.84823 12.4 4.16997 12.4C4.49171 12.4 4.8103 12.3366 5.10755 12.2135C5.40479 12.0904 5.67488 11.9099 5.90238 11.6824C6.12989 11.4549 6.31035 11.1848 6.43348 10.8876C6.5566 10.5903 6.61997 10.2717 6.61997 9.95C6.61997 9.62826 6.5566 9.30967 6.43348 9.01243C6.31035 8.71518 6.12989 8.44509 5.90238 8.21759C5.67488 7.99008 5.40479 7.80962 5.10755 7.6865C4.8103 7.56337 4.49171 7.5 4.16997 7.5C3.84823 7.5 3.52964 7.56337 3.2324 7.6865C2.93515 7.80962 2.66506 7.99008 2.43756 8.21759C2.21006 8.44509 2.02959 8.71518 1.90647 9.01243C1.78334 9.30967 1.71997 9.62826 1.71997 9.95ZM17.38 9.95C17.38 10.5998 17.6381 11.2229 18.0976 11.6824C18.557 12.1419 19.1802 12.4 19.83 12.4C20.4798 12.4 21.1029 12.1419 21.5624 11.6824C22.0218 11.2229 22.28 10.5998 22.28 9.95C22.28 9.62826 22.2166 9.30967 22.0935 9.01243C21.9704 8.71518 21.7899 8.44509 21.5624 8.21759C21.3349 7.99008 21.0648 7.80962 20.7675 7.6865C20.4703 7.56337 20.1517 7.5 19.83 7.5C19.5082 7.5 19.1896 7.56337 18.8924 7.6865C18.5951 7.80962 18.3251 7.99008 18.0976 8.21759C17.8701 8.44509 17.6896 8.71518 17.5665 9.01243C17.4433 9.30967 17.38 9.62826 17.38 9.95ZM11.5 4.5C11.2348 4.5 10.9804 4.39464 10.7929 4.20711C10.6053 4.01957 10.5 3.76522 10.5 3.5V1.5C10.5 1.23478 10.6053 0.98043 10.7929 0.792893C10.9804 0.605357 11.2348 0.5 11.5 0.5C11.7652 0.5 12.0195 0.605357 12.2071 0.792893C12.3946 0.98043 12.5 1.23478 12.5 1.5V3.5C12.5 3.76522 12.3946 4.01957 12.2071 4.20711C12.0195 4.39464 11.7652 4.5 11.5 4.5ZM17.37 2.88C17.1826 2.69375 16.9292 2.58921 16.665 2.58921C16.4008 2.58921 16.1473 2.69375 15.96 2.88L14.54 4.29C14.4462 4.38296 14.3718 4.49356 14.3211 4.61542C14.2703 4.73728 14.2442 4.86799 14.2442 5C14.2442 5.13201 14.2703 5.26272 14.3211 5.38458C14.3718 5.50644 14.4462 5.61704 14.54 5.71C14.6329 5.80373 14.7435 5.87812 14.8654 5.92889C14.9873 5.97966 15.118 6.0058 15.25 6.0058C15.382 6.0058 15.5127 5.97966 15.6345 5.92889C15.7564 5.87812 15.867 5.80373 15.96 5.71L17.37 4.29C17.5562 4.10264 17.6608 3.84919 17.6608 3.585C17.6608 3.32081 17.5562 3.06736 17.37 2.88ZM7.74997 6C7.61169 6.0062 7.47364 5.98363 7.34454 5.93371C7.21544 5.88379 7.09811 5.80761 6.99997 5.71L5.62997 4.29C5.49534 4.09941 5.43159 3.86774 5.44977 3.63511C5.46795 3.40247 5.56691 3.18352 5.72952 3.01616C5.89213 2.8488 6.10815 2.74358 6.34016 2.71872C6.57218 2.69385 6.80559 2.7509 6.99997 2.88L8.45997 4.29C8.5537 4.38296 8.62809 4.49356 8.67886 4.61542C8.72963 4.73728 8.75577 4.86799 8.75577 5C8.75577 5.13201 8.72963 5.26272 8.67886 5.38458C8.62809 5.50644 8.5537 5.61704 8.45997 5.71C8.36653 5.80268 8.25571 5.87601 8.13388 5.92577C8.01204 5.97554 7.88158 6.00076 7.74997 6Z" fill="#EC6F04"/>
<path d="M16.4 23.4999V16.7699C15.1787 16.6487 14.0187 16.1762 13.0603 15.4095C12.102 14.6428 11.3863 13.6148 11 12.4499L10.16 9.91992C10.0901 9.71975 10.0646 9.50676 10.0854 9.29577C10.1061 9.08477 10.1726 8.88082 10.2801 8.6981C10.3876 8.51538 10.5337 8.35827 10.7081 8.2377C10.8825 8.11713 11.081 8.03599 11.29 7.99992C11.6446 7.9538 12.004 8.03503 12.3044 8.22914C12.6047 8.42326 12.8264 8.71765 12.93 9.05992L13.75 11.5099C13.9739 12.1947 14.4091 12.791 14.993 13.2132C15.5768 13.6354 16.2794 13.8618 17 13.8599H21.3C21.8304 13.8599 22.3391 14.0706 22.7142 14.4457C23.0892 14.8208 23.3 15.3295 23.3 15.8599V23.4999H16.4ZM9.53996 12.9199V12.7899C9.21474 13.1357 8.82071 13.4095 8.38325 13.5938C7.94578 13.7781 7.47457 13.8688 6.99996 13.8599H2.70996C2.17953 13.8599 1.67082 14.0706 1.29575 14.4457C0.920675 14.8208 0.709961 15.3295 0.709961 15.8599V23.4999H7.59996V16.7699C8.81442 16.6546 9.97021 16.193 10.93 15.4399C10.3143 14.6934 9.84298 13.8389 9.53996 12.9199Z" fill="#EC6F04"/>
</g>
<defs>
<clipPath id="clip0_74_43">
<rect width="24" height="24" fill="white"/>
</clipPath>
</defs>
</svg>
