<svg width="505" height="437" xmlns="http://www.w3.org/2000/svg" xmlns:xlink="http://www.w3.org/1999/xlink" xml:space="preserve" overflow="hidden"><defs><clipPath id="clip0"><rect x="5477" y="952" width="505" height="437"/></clipPath></defs><g clip-path="url(#clip0)" transform="translate(-5477 -952)"><path d="M443.911 65.5266C432.084 46.3995 410.927 33.6496 386.787 33.6496 385.349 33.6496 383.925 33.7106 382.51 33.7999L389.151 96.1954 443.911 65.5266Z" fill="#EC8839" transform="matrix(1 0 0 1.00185 5477.22 951.641)"/><path d="M363.383 110.933C369.636 110.933 375.486 114.279 378.657 119.66 381.06 123.736 381.734 128.508 380.551 133.092 379.366 137.676 376.469 141.527 372.386 143.929 364.151 148.79 356.09 152.673 348.32 155.766 359.216 163.401 372.471 167.896 386.785 167.896 423.858 167.896 453.909 137.844 453.909 100.774 453.909 89.8693 451.291 79.5812 446.676 70.4771L388.171 103.246C387.738 103.489 387.259 103.611 386.782 103.611 386.337 103.611 385.893 103.504 385.483 103.291 384.633 102.85 384.065 102.024 383.966 101.074L376.867 34.3856C344.501 39.1815 319.665 67.0737 319.665 100.773 319.665 109.891 321.49 118.58 324.783 126.505 334.806 123.465 344.697 119.099 354.388 113.39 357.115 111.783 360.225 110.933 363.383 110.933Z" fill="#EC8839" transform="matrix(1 0 0 1.00185 5477.22 951.641)"/><path d="M199.623 5.67373 498.832 5.67373 498.832 190.023 313.13 190.023 313.13 195.696 504.504 195.696 504.504 0 193.948 0 193.948 81.3921 199.623 81.3921Z" fill="#EC8839" transform="matrix(1 0 0 1.00185 5477.22 951.641)"/><path d="M215.629 347.712 217.718 347.712C218.008 347.712 218.293 347.724 218.576 347.741 222.129 347.816 227.566 348.577 233.712 351.679 235.208 352.425 236.676 353.286 238.111 354.246L238.111 304.674C234.935 304.635 231.877 304.518 228.946 304.331 230.109 308.095 230.738 312.091 230.738 316.232 230.737 328.946 224.832 340.298 215.629 347.712Z" fill="#EC8839" transform="matrix(1 0 0 1.00185 5477.22 951.641)"/><path d="M250.233 366.005C255.969 358.282 262.057 354.005 266.814 351.651 268.32 350.889 269.789 350.273 271.199 349.771L271.199 326.992C270.249 323.564 269.734 319.96 269.734 316.234 269.734 312.509 270.249 308.904 271.199 305.477L271.199 301.986C263.234 303.463 253.761 304.54 242.837 304.677L242.837 357.913C245.488 360.254 247.972 362.962 250.233 366.005Z" fill="#EC8839" transform="matrix(1 0 0 1.00185 5477.22 951.641)"/><path d="M250.175 125.616C259.854 122.356 267.674 114.311 270.161 103.633 273.977 87.2359 263.783 70.8515 247.388 67.0312 230.991 63.2151 214.606 73.4125 210.786 89.8069 207.188 105.254 216.032 120.69 230.781 125.618 231.687 125.92 232.612 126.188 233.562 126.409 239.278 127.738 244.993 127.36 250.175 125.616Z" fill="#EC8839" transform="matrix(1 0 0 1.00185 5477.22 951.641)"/><path d="M190.322 275.819C206.871 275.819 221.118 285.819 227.361 300.09 231.481 300.389 235.846 300.565 240.472 300.565 253.991 300.565 265.361 299.117 274.509 297.198 279.739 287.449 288.847 280.083 299.763 277.178L277.234 166.457 275.456 157.716C279.818 158.231 284.926 158.597 290.692 158.599 310.603 158.614 338.273 154.186 368.071 136.599 372.453 134.016 373.909 128.364 371.325 123.98 368.744 119.595 363.091 118.136 358.707 120.724 332.046 136.428 307.944 140.152 290.692 140.166 282.425 140.166 275.755 139.295 271.237 138.45 268.98 138.024 267.26 137.608 266.149 137.314 265.592 137.167 265.191 137.046 264.944 136.974 264.825 136.938 264.744 136.913 264.703 136.898L264.703 136.9 264.415 136.803 264.13 136.727C264.011 136.704 263.003 136.438 261.375 136.073L266.576 140.475 268.834 152.633 260.827 154.254 265.937 162.766C265.937 162.766 247.734 194.789 242.628 201.676 241.893 202.666 241.343 203.253 240.93 203.55 240.831 203.73 240.681 203.813 240.474 203.772 240.267 203.812 240.116 203.73 240.02 203.55 239.604 203.252 239.053 202.666 238.319 201.676 233.212 194.789 215.009 162.766 215.009 162.766L220.12 154.254 212.113 152.633 214.371 140.475 219.575 136.072C218.666 136.275 217.95 136.448 217.478 136.565 214.357 137.072 202.885 140.132 190.961 154.09 177.999 169.197 164.547 196.397 158.011 245.94 157.343 250.989 160.897 255.617 165.944 256.285 166.353 256.339 166.76 256.366 167.162 256.366 171.715 256.366 175.676 252.99 176.288 248.354 182.196 203.531 193.809 180.039 203.409 167.971L197.917 194.96 181.255 276.864C184.167 276.186 187.203 275.819 190.322 275.819Z" fill="#EC8839" transform="matrix(1 0 0 1.00185 5477.22 951.641)"/><path d="M226.823 152.225 239.918 196.407C239.918 196.407 240.189 197.35 240.472 198.559 240.754 197.348 241.027 196.407 241.027 196.407L254.121 152.225 254.897 134.828C250.814 134.173 245.752 133.594 240.472 133.577 235.195 133.594 230.13 134.172 226.047 134.828L226.823 152.225Z" fill="#EC8839" transform="matrix(1 0 0 1.00185 5477.22 951.641)"/><path d="M102.401 316.234C102.401 298.611 88.118 284.328 70.4941 284.328 52.8731 284.328 38.5873 298.611 38.5873 316.234 38.5873 332.083 50.1447 345.226 65.2898 347.712L75.6985 347.712C90.8435 345.226 102.401 332.083 102.401 316.234Z" fill="#EC8839" transform="matrix(1 0 0 1.00185 5477.22 951.641)"/><path d="M222.229 316.234C222.229 298.611 207.946 284.328 190.322 284.328 172.701 284.328 158.415 298.611 158.415 316.234 158.415 332.083 169.972 345.226 185.117 347.712L195.526 347.712C210.671 345.226 222.229 332.083 222.229 316.234Z" fill="#EC8839" transform="matrix(1 0 0 1.00185 5477.22 951.641)"/><path d="M32.1422 390.421 32.1422 436.893 108.849 436.893 108.849 390.486C109.688 392.209 110.538 394.186 111.374 396.493 114.493 405.138 117.216 418.132 118.259 436.892L142.535 436.892C143.857 413.089 147.942 398.659 151.968 390.418L151.968 436.892 228.675 436.892 228.675 390.482C229.515 392.208 230.364 394.185 231.201 396.492 234.319 405.137 237.042 418.13 238.086 436.89L262.362 436.89C263.683 413.088 267.769 398.657 271.795 390.417L271.795 436.89 348.501 436.89 348.501 390.481C349.341 392.207 350.19 394.183 351.027 396.491 354.145 405.135 356.868 418.129 357.913 436.889L380.628 436.889C378.991 404.74 372.831 385.59 364.846 373.386 360.188 366.317 354.74 361.782 349.701 359.27 344.857 356.824 340.597 356.275 338.04 356.241 337.874 356.236 337.711 356.216 337.542 356.216L315.981 356.216C314.075 356.492 312.128 356.643 310.148 356.643 308.166 356.643 306.22 356.494 304.315 356.216L282.756 356.216C282.565 356.216 282.382 356.236 282.195 356.244 279.632 356.281 275.401 356.841 270.589 359.269 263.49 362.784 255.882 370.199 250.221 383.023 248.606 379.394 246.862 376.201 245.02 373.384 240.362 366.315 234.913 361.78 229.875 359.269 225.031 356.823 220.771 356.274 218.214 356.24 218.048 356.234 217.885 356.214 217.716 356.214L162.929 356.214C162.737 356.214 162.554 356.234 162.366 356.243 159.803 356.28 155.572 356.84 150.76 359.267 143.661 362.783 136.053 370.198 130.392 383.022 128.777 379.393 127.033 376.199 125.191 373.383 120.532 366.314 115.084 361.779 110.046 359.267 105.202 356.821 100.942 356.272 98.3849 356.238 98.219 356.233 98.0559 356.213 97.8871 356.213L43.1011 356.213C42.9096 356.213 42.7239 356.233 42.5367 356.241 39.9742 356.278 35.7455 356.84 30.934 359.266 23.3033 363.045 15.0827 371.32 9.32812 385.984 4.61443 397.902 1.15715 414.116 0 436.893L22.7091 436.893C24.0293 413.092 28.1148 398.662 32.1422 390.421Z" fill="#EC8839" transform="matrix(1 0 0 1.00185 5477.22 951.641)"/><path d="M342.056 316.234C342.056 333.856 327.771 348.141 310.149 348.141 292.528 348.141 278.243 333.856 278.243 316.234 278.243 298.613 292.528 284.328 310.149 284.328 327.771 284.328 342.056 298.613 342.056 316.234Z" fill="#EC8839" transform="matrix(1 0 0 1.00185 5477.22 951.641)"/><path d="M279.722 37.4316 312.338 37.4316 312.338 43.1039 279.722 43.1039Z" fill="#EC8839" transform="matrix(1 0 0 1.00185 5477.22 951.641)"/><path d="M451.664 22.1873 484.28 22.1873 484.28 27.8596 451.664 27.8596Z" fill="#EC8839" transform="matrix(1 0 0 1.00185 5477.22 951.641)"/><path d="M451.664 159.741 484.28 159.741 484.28 165.413 451.664 165.413Z" fill="#EC8839" transform="matrix(1 0 0 1.00185 5477.22 951.641)"/><path d="M451.664 173.213 484.28 173.213 484.28 178.885 451.664 178.885Z" fill="#EC8839" transform="matrix(1 0 0 1.00185 5477.22 951.641)"/><path d="M322.264 69.5724 322.264 66.7376 305.692 66.7376 296.617 46.3088 294.027 47.4603 294.024 47.4603 303.849 69.5724Z" fill="#EC8839" transform="matrix(1 0 0 1.00185 5477.22 951.641)"/><path d="M458.656 45.2282 438.547 45.231 438.547 48.0658 460.269 48.0658 469.544 32.4854 467.109 31.0318 467.108 31.0318Z" fill="#EC8839" transform="matrix(1 0 0 1.00185 5477.22 951.641)"/></g></svg>