<svg width="30" height="28" viewBox="0 0 30 28" fill="none" xmlns="http://www.w3.org/2000/svg">
<path d="M14 13.75C14 12.6458 13.6094 11.7031 12.8281 10.9219C12.0469 10.1406 11.1042 9.75 10 9.75C8.89583 9.75 7.95312 10.1406 7.17188 10.9219C6.39062 11.7031 6 12.6458 6 13.75C6 14.8542 6.39062 15.7969 7.17188 16.5781C7.95312 17.3594 8.89583 17.75 10 17.75C11.1042 17.75 12.0469 17.3594 12.8281 16.5781C13.6094 15.7969 14 14.8542 14 13.75ZM26 21.75C26 21.2083 25.8021 20.7396 25.4062 20.3438C25.0104 19.9479 24.5417 19.75 24 19.75C23.4583 19.75 22.9896 19.9479 22.5938 20.3438C22.1979 20.7396 22 21.2083 22 21.75C22 22.3021 22.1953 22.7734 22.5859 23.1641C22.9766 23.5547 23.4479 23.75 24 23.75C24.5521 23.75 25.0234 23.5547 25.4141 23.1641C25.8047 22.7734 26 22.3021 26 21.75ZM26 5.75C26 5.20833 25.8021 4.73958 25.4062 4.34375C25.0104 3.94792 24.5417 3.75 24 3.75C23.4583 3.75 22.9896 3.94792 22.5938 4.34375C22.1979 4.73958 22 5.20833 22 5.75C22 6.30208 22.1953 6.77344 22.5859 7.16406C22.9766 7.55469 23.4479 7.75 24 7.75C24.5521 7.75 25.0234 7.55469 25.4141 7.16406C25.8047 6.77344 26 6.30208 26 5.75ZM20 12.3281V15.2188C20 15.3229 19.9635 15.4245 19.8906 15.5234C19.8177 15.6224 19.7344 15.6771 19.6406 15.6875L17.2188 16.0625C17.1042 16.4271 16.9375 16.8229 16.7188 17.25C17.0729 17.75 17.5417 18.349 18.125 19.0469C18.1979 19.1615 18.2344 19.2656 18.2344 19.3594C18.2344 19.4844 18.1979 19.5833 18.125 19.6562C17.8854 19.9688 17.4557 20.4349 16.8359 21.0547C16.2161 21.6745 15.8073 21.9844 15.6094 21.9844C15.4948 21.9844 15.3854 21.9479 15.2812 21.875L13.4844 20.4688C13.099 20.6667 12.6979 20.8281 12.2812 20.9531C12.1667 22.0781 12.0469 22.8854 11.9219 23.375C11.849 23.625 11.6927 23.75 11.4531 23.75H8.54688C8.43229 23.75 8.32812 23.7109 8.23438 23.6328C8.14062 23.5547 8.08854 23.4635 8.07812 23.3594L7.71875 20.9688C7.36458 20.8646 6.97396 20.7031 6.54688 20.4844L4.70312 21.875C4.63021 21.9479 4.52604 21.9844 4.39062 21.9844C4.27604 21.9844 4.16667 21.9427 4.0625 21.8594C2.5625 20.474 1.8125 19.6406 1.8125 19.3594C1.8125 19.2656 1.84896 19.1667 1.92188 19.0625C2.02604 18.9167 2.23958 18.6406 2.5625 18.2344C2.88542 17.8281 3.13021 17.5104 3.29688 17.2812C3.05729 16.8229 2.875 16.3958 2.75 16L0.375 15.625C0.270833 15.6146 0.182292 15.5651 0.109375 15.4766C0.0364583 15.388 0 15.2865 0 15.1719V12.2812C0 12.1771 0.0364583 12.0755 0.109375 11.9766C0.182292 11.8776 0.265625 11.8229 0.359375 11.8125L2.78125 11.4375C2.89583 11.0729 3.0625 10.6771 3.28125 10.25C2.92708 9.75 2.45833 9.15104 1.875 8.45312C1.80208 8.33854 1.76562 8.23438 1.76562 8.14062C1.76562 8.01562 1.80208 7.91146 1.875 7.82812C2.10417 7.51562 2.53125 7.05208 3.15625 6.4375C3.78125 5.82292 4.19271 5.51562 4.39062 5.51562C4.50521 5.51562 4.61458 5.55208 4.71875 5.625L6.51562 7.03125C6.86979 6.84375 7.27083 6.67708 7.71875 6.53125C7.83333 5.40625 7.95312 4.60417 8.07812 4.125C8.15104 3.875 8.30729 3.75 8.54688 3.75H11.4531C11.5677 3.75 11.6719 3.78906 11.7656 3.86719C11.8594 3.94531 11.9115 4.03646 11.9219 4.14062L12.2812 6.53125C12.6354 6.63542 13.026 6.79688 13.4531 7.01562L15.2969 5.625C15.3802 5.55208 15.4844 5.51562 15.6094 5.51562C15.724 5.51562 15.8333 5.55729 15.9375 5.64062C17.4375 7.02604 18.1875 7.85938 18.1875 8.14062C18.1875 8.22396 18.151 8.32292 18.0781 8.4375C17.9531 8.60417 17.7344 8.88542 17.4219 9.28125C17.1094 9.67708 16.875 9.98958 16.7188 10.2188C16.9583 10.7188 17.1354 11.1458 17.25 11.5L19.625 11.8594C19.7292 11.8802 19.8177 11.9349 19.8906 12.0234C19.9635 12.112 20 12.2135 20 12.3281ZM30 20.6562V22.8438C30 23.0104 29.224 23.1719 27.6719 23.3281C27.5469 23.6094 27.3906 23.8802 27.2031 24.1406C27.7344 25.3177 28 26.0365 28 26.2969C28 26.3385 27.9792 26.375 27.9375 26.4062C26.6667 27.1458 26.0208 27.5156 26 27.5156C25.9167 27.5156 25.6771 27.2708 25.2812 26.7812C24.8854 26.2917 24.6146 25.9375 24.4688 25.7188C24.2604 25.7396 24.1042 25.75 24 25.75C23.8958 25.75 23.7396 25.7396 23.5312 25.7188C23.3854 25.9375 23.1146 26.2917 22.7188 26.7812C22.3229 27.2708 22.0833 27.5156 22 27.5156C21.9792 27.5156 21.3333 27.1458 20.0625 26.4062C20.0208 26.375 20 26.3385 20 26.2969C20 26.0365 20.2656 25.3177 20.7969 24.1406C20.6094 23.8802 20.4531 23.6094 20.3281 23.3281C18.776 23.1719 18 23.0104 18 22.8438V20.6562C18 20.4896 18.776 20.3281 20.3281 20.1719C20.4635 19.8698 20.6198 19.599 20.7969 19.3594C20.2656 18.1823 20 17.4635 20 17.2031C20 17.1615 20.0208 17.125 20.0625 17.0938C20.1042 17.0729 20.2865 16.9688 20.6094 16.7812C20.9323 16.5938 21.2396 16.4167 21.5312 16.25C21.8229 16.0833 21.9792 16 22 16C22.0833 16 22.3229 16.2422 22.7188 16.7266C23.1146 17.2109 23.3854 17.5625 23.5312 17.7812C23.7396 17.7604 23.8958 17.75 24 17.75C24.1042 17.75 24.2604 17.7604 24.4688 17.7812C25 17.0417 25.4792 16.4583 25.9062 16.0312L26 16C26.0417 16 26.6875 16.3646 27.9375 17.0938C27.9792 17.125 28 17.1615 28 17.2031C28 17.4635 27.7344 18.1823 27.2031 19.3594C27.3802 19.599 27.5365 19.8698 27.6719 20.1719C29.224 20.3281 30 20.4896 30 20.6562ZM30 4.65625V6.84375C30 7.01042 29.224 7.17188 27.6719 7.32812C27.5469 7.60938 27.3906 7.88021 27.2031 8.14062C27.7344 9.31771 28 10.0365 28 10.2969C28 10.3385 27.9792 10.375 27.9375 10.4062C26.6667 11.1458 26.0208 11.5156 26 11.5156C25.9167 11.5156 25.6771 11.2708 25.2812 10.7812C24.8854 10.2917 24.6146 9.9375 24.4688 9.71875C24.2604 9.73958 24.1042 9.75 24 9.75C23.8958 9.75 23.7396 9.73958 23.5312 9.71875C23.3854 9.9375 23.1146 10.2917 22.7188 10.7812C22.3229 11.2708 22.0833 11.5156 22 11.5156C21.9792 11.5156 21.3333 11.1458 20.0625 10.4062C20.0208 10.375 20 10.3385 20 10.2969C20 10.0365 20.2656 9.31771 20.7969 8.14062C20.6094 7.88021 20.4531 7.60938 20.3281 7.32812C18.776 7.17188 18 7.01042 18 6.84375V4.65625C18 4.48958 18.776 4.32812 20.3281 4.17188C20.4635 3.86979 20.6198 3.59896 20.7969 3.35938C20.2656 2.18229 20 1.46354 20 1.20312C20 1.16146 20.0208 1.125 20.0625 1.09375C20.1042 1.07292 20.2865 0.96875 20.6094 0.78125C20.9323 0.59375 21.2396 0.416667 21.5312 0.25C21.8229 0.0833333 21.9792 0 22 0C22.0833 0 22.3229 0.242188 22.7188 0.726562C23.1146 1.21094 23.3854 1.5625 23.5312 1.78125C23.7396 1.76042 23.8958 1.75 24 1.75C24.1042 1.75 24.2604 1.76042 24.4688 1.78125C25 1.04167 25.4792 0.458333 25.9062 0.03125L26 0C26.0417 0 26.6875 0.364583 27.9375 1.09375C27.9792 1.125 28 1.16146 28 1.20312C28 1.46354 27.7344 2.18229 27.2031 3.35938C27.3802 3.59896 27.5365 3.86979 27.6719 4.17188C29.224 4.32812 30 4.48958 30 4.65625Z" fill="white"/>
</svg>
