<svg width="513" height="470" xmlns="http://www.w3.org/2000/svg" xmlns:xlink="http://www.w3.org/1999/xlink" xml:space="preserve" overflow="hidden"><defs><clipPath id="clip0"><rect x="3088" y="952" width="513" height="470"/></clipPath></defs><g clip-path="url(#clip0)" transform="translate(-3088 -952)"><path d="M261.854 21.3636C212.835 21.1607 163.688 36.1473 121.944 66.3448 21.1714 139.248-5.18068 276.478 58.2266 380.957L38.1127 388.797C34.3314 390.282 31.223 395.249 31.5648 399.287 31.8959 403.346 35.7627 407.715 39.7471 408.548L91.7782 419.443C94.3419 419.988 97.3862 419.4 99.576 417.958 99.2662 418.172 99.9178 417.734 100.035 417.649 100.067 417.606 100.099 417.585 100.142 417.542 102.3 415.908 103.87 413.141 104.169 410.47L110.098 357.649C110.546 353.6 107.609 348.569 103.859 346.988 100.121 345.407 94.4487 346.796 91.8637 349.926L77.1548 367.722C20.9471 273.615 45.0559 150.4 135.531 84.9419 210.71 30.5607 312.39 30.8598 387.237 85.6896 387.344 85.7644 387.43 85.8605 387.462 85.978L387.526 85.9353C391.564 89.2787 397.353 89.3641 401.626 86.2664 406.796 82.5064 407.853 75.4991 404.104 70.3078 403.271 69.1541 402.31 68.1821 401.37 67.5305L401.37 67.4878C401.348 67.4878 401.348 67.4878 401.327 67.4878 359.849 36.9484 310.884 21.5666 261.854 21.3636ZM386.65 86.8112 386.65 86.8753 386.714 86.8753 386.778 86.8112C386.735 86.8112 386.693 86.8112 386.65 86.8112ZM253.757 87.185C251.845 87.2171 250.115 87.356 248.417 87.4521 248.352 87.4521 248.278 87.4521 248.203 87.4521 238.707 87.6871 230.183 93.4339 226.337 102.033 226.337 102.076 226.326 102.118 226.316 102.161L226.273 102.204C226.252 102.257 226.198 102.428 226.049 102.77 226.027 102.834 225.995 102.898 225.963 102.962 221.733 112.202 219.341 122.478 217.14 133.234 216.659 135.51 215.068 137.411 212.91 138.287 212.568 138.426 212.098 138.65 211.489 138.917 209.31 139.836 206.821 139.601 204.856 138.287 195.659 132.198 186.74 126.516 177.147 122.969 176.667 122.788 175.684 122.574 176.976 122.926 176.773 122.884 176.571 122.82 176.368 122.756 167.587 119.412 157.578 121.356 150.731 127.851 150.667 127.893 150.603 127.936 150.539 127.979 149.193 129.175 147.901 130.286 146.512 131.632 146.491 131.653 146.458 131.686 146.426 131.718 146.416 131.728 146.405 131.739 146.384 131.76L146.341 131.803C146.33 131.814 146.32 131.824 146.298 131.846 145.486 132.647 144.707 133.405 143.916 134.206 143.906 134.228 143.895 134.249 143.873 134.271L143.831 134.313 143.788 134.356C143.777 134.377 143.767 134.399 143.745 134.42 142.944 135.211 142.175 135.937 141.385 136.738 141.385 136.749 141.374 136.759 141.363 136.781L141.321 136.823 141.256 136.866C141.256 136.877 141.246 136.888 141.235 136.909L141.192 136.973C139.868 138.34 138.661 139.643 137.496 140.936 137.454 140.989 137.411 141.053 137.368 141.107 130.842 147.965 128.898 158.059 132.252 166.85 132.337 167.096 132.401 167.363 132.465 167.619 132.497 167.683 132.54 167.758 132.572 167.833 132.572 167.844 132.572 167.886 132.572 167.897 136.108 177.372 141.769 186.227 147.804 195.349 149.108 197.325 149.332 199.825 148.392 202.004 148.103 202.677 147.847 203.168 147.708 203.51 146.822 205.657 144.931 207.227 142.656 207.708 131.899 209.909 121.623 212.323 112.383 216.553 112.33 216.585 112.277 216.606 112.213 216.638 111.881 216.798 111.732 216.82 111.668 216.852L111.454 216.937C102.845 220.783 97.1298 229.285 96.8948 238.781 96.8948 238.856 96.8948 238.931 96.8948 239.006 96.7987 240.736 96.6598 242.488 96.6278 244.432 96.6278 244.454 96.6278 244.496 96.6278 244.518 96.6385 244.528 96.6491 244.539 96.6705 244.56L96.6705 244.624C96.6812 244.592 96.6705 244.603 96.6598 244.614 96.6491 245.725 96.6491 246.825 96.6598 247.936 96.6705 247.946 96.6812 247.957 96.7026 247.979L96.7026 248.021 96.7026 248.085 96.7026 248.128 96.7026 248.171C96.6919 248.181 96.6812 248.192 96.6598 248.214 96.6491 249.324 96.6491 250.425 96.6598 251.536 96.6705 251.546 96.6812 251.557 96.7026 251.578L96.7026 251.642C96.6919 251.653 96.6812 251.664 96.6598 251.685 96.6598 251.706 96.6598 251.749 96.6598 251.771 96.6919 253.715 96.8307 255.467 96.9269 257.197 96.9269 257.272 96.9269 257.346 96.9269 257.421 97.1619 266.917 102.887 275.431 111.486 279.266L111.7 279.351C111.753 279.372 111.913 279.404 112.245 279.565 112.298 279.586 112.351 279.618 112.416 279.65 121.655 283.88 131.931 286.294 142.688 288.495 144.963 288.975 146.854 290.535 147.74 292.693 147.879 293.024 148.146 293.526 148.424 294.199 149.364 296.367 149.14 298.877 147.836 300.854 141.812 309.976 136.14 318.842 132.604 328.306 132.604 328.317 132.604 328.359 132.604 328.37 132.572 328.445 132.54 328.519 132.497 328.584 132.444 328.84 132.369 329.107 132.284 329.353 128.93 338.144 130.863 348.227 137.4 355.075 137.443 355.128 137.486 355.181 137.528 355.245 138.682 356.538 139.9 357.852 141.224 359.23L141.267 359.272C141.267 359.294 141.278 359.315 141.288 359.337L141.353 359.358 141.395 359.422C141.395 359.443 141.406 359.443 141.417 359.465 142.196 360.255 142.976 360.992 143.777 361.783 143.788 361.804 143.799 361.825 143.82 361.847L143.863 361.89 143.906 361.932C143.916 361.954 143.927 361.975 143.948 361.996 144.739 362.797 145.518 363.556 146.33 364.357 146.341 364.378 146.352 364.378 146.373 364.4L146.416 364.442C146.426 364.464 146.437 364.464 146.458 364.485 146.48 364.507 146.512 364.549 146.544 364.571 147.933 365.906 149.225 367.017 150.571 368.224 150.624 368.267 150.678 368.309 150.742 368.352 157.6 374.836 167.63 376.812 176.4 373.469 176.603 373.394 176.806 373.33 177.008 373.276 175.716 373.629 176.688 373.426 177.179 373.234 186.761 369.687 195.691 364.015 204.888 357.916 206.854 356.602 209.342 356.367 211.521 357.286 212.13 357.542 212.59 357.766 212.942 357.916 215.111 358.792 216.691 360.682 217.172 362.968 219.373 373.725 221.765 384.001 225.995 393.241 226.027 393.305 226.049 393.369 226.081 393.433 226.241 393.764 226.284 393.935 226.305 393.999L226.326 394.042C226.337 394.085 226.348 394.127 226.369 394.17 230.215 402.78 238.739 408.516 248.235 408.751 248.299 408.751 248.374 408.751 248.449 408.751 250.147 408.857 251.877 408.964 253.789 408.996L253.896 408.996C253.918 408.996 253.96 408.996 253.982 408.996 253.992 408.975 254.003 408.975 254.024 408.954L254.067 408.954C254.089 408.975 254.11 408.975 254.131 408.996 255.296 409.007 256.449 409.007 257.614 408.996 257.635 408.996 257.667 408.996 257.699 408.996 258.853 409.007 260.038 409.007 261.181 408.996 261.203 408.996 261.224 408.996 261.245 408.996 261.277 408.996 261.331 408.996 261.374 408.996 263.275 408.954 265.005 408.847 266.693 408.751 266.779 408.751 266.843 408.751 266.917 408.751 276.414 408.516 284.906 402.769 288.74 394.17 288.762 394.149 288.783 394.149 288.804 394.127 288.826 394.106 288.826 394.063 288.847 394.042 288.911 393.924 288.954 393.796 289.093 393.476 289.114 393.433 289.114 393.412 289.136 393.369L289.136 393.348C293.387 384.086 295.769 373.821 297.959 363.032 298.429 360.725 300.01 358.802 302.189 357.916 302.648 357.724 303.161 357.478 303.738 357.232 305.906 356.303 308.406 356.538 310.371 357.841 313.714 360.052 317.047 362.071 320.369 364.101L292.618 336.328C283.442 340.312 276.787 348.516 274.779 358.322 272.654 368.811 270.56 377.079 267.729 383.317 267.526 383.712 267.345 384.118 267.163 384.524 267.014 384.855 266.682 385.08 266.309 385.09 265.977 385.101 265.636 385.112 265.304 385.133 263.574 385.24 262.388 385.336 261.192 385.357 261.096 385.357 260.957 385.357 260.861 385.357 259.899 385.368 258.927 385.368 257.923 385.357 257.752 385.357 257.571 385.357 257.4 385.357 256.385 385.368 255.36 385.368 254.313 385.357L254.067 385.357 254.024 385.357C252.807 385.325 251.536 385.229 249.794 385.133 249.485 385.112 249.164 385.101 248.854 385.09 248.481 385.08 248.128 384.866 247.979 384.524 247.818 384.204 247.669 383.873 247.498 383.563 247.519 383.595 247.658 383.809 247.669 383.83 247.615 383.702 247.637 383.702 247.541 383.52 247.519 383.477 247.487 383.413 247.455 383.371 244.592 377.111 242.467 368.726 240.32 358.247 238.258 348.227 231.358 339.917 221.894 336.05 222.096 336.136 221.744 335.933 220.783 335.527 211.308 331.51 200.466 332.525 191.888 338.197 182.905 344.147 175.406 348.665 168.965 351.047 168.634 351.154 168.303 351.272 167.982 351.379 167.662 351.507 167.267 351.4 167.021 351.165 166.775 350.941 166.53 350.727 166.273 350.513 164.628 349.05 163.816 348.388 163.122 347.736L163.079 347.693C163.069 347.672 163.058 347.629 163.037 347.608 163.015 347.587 162.941 347.544 162.908 347.522 162.908 347.501 162.908 347.48 162.908 347.458 162.203 346.775 161.509 346.112 160.804 345.397 160.74 345.333 160.676 345.29 160.612 345.226L160.569 345.183 160.526 345.14C160.473 345.055 160.42 344.991 160.356 344.916 159.661 344.232 158.978 343.613 158.273 342.897 158.219 342.833 158.166 342.79 158.102 342.726L158.038 342.684 158.016 342.62C157.973 342.577 157.92 342.534 157.867 342.491 157.023 341.605 156.2 340.633 155.153 339.468 154.929 339.244 154.705 339.009 154.481 338.785 154.288 338.582 154.213 338.165 154.352 337.802 154.491 337.396 154.619 336.99 154.748 336.574 157.119 330.207 161.563 322.847 167.491 313.875 173.163 305.297 174.156 294.466 170.14 285.002 169.659 283.859 169.478 283.453 169.617 283.795 165.75 274.32 157.418 267.409 147.398 265.347 136.92 263.2 128.588 261.074 122.318 258.212 122.253 258.19 122.189 258.169 122.125 258.148 121.933 258.062 121.954 258.084 121.837 258.019L121.132 257.71C120.801 257.56 120.598 257.208 120.587 256.834 120.576 256.513 120.566 256.193 120.544 255.872 120.448 254.131 120.341 252.882 120.32 251.653L120.32 251.589C120.32 251.514 120.32 251.407 120.32 251.343 120.309 250.371 120.309 249.431 120.32 248.449 120.32 248.363 120.32 248.278 120.32 248.203L120.32 248.16 120.32 248.096 120.32 248.053 120.32 248.011C120.32 247.925 120.32 247.84 120.32 247.765 120.309 246.782 120.309 245.831 120.32 244.87 120.32 244.795 120.32 244.667 120.32 244.603L120.32 244.56C120.352 243.343 120.448 242.093 120.544 240.341 120.566 240.021 120.576 239.7 120.587 239.38 120.598 239.006 120.801 238.653 121.132 238.504L121.837 238.194C121.965 238.141 121.933 238.162 122.125 238.066 122.189 238.044 122.253 238.012 122.318 237.98 128.577 235.118 136.92 233.013 147.398 230.866 157.418 228.815 165.75 221.894 169.617 212.419 169.478 212.75 169.649 212.355 170.14 211.212 174.146 201.748 173.163 190.916 167.491 182.339 161.563 173.366 157.119 165.985 154.748 159.618 154.619 159.213 154.491 158.807 154.352 158.411 154.213 158.048 154.288 157.632 154.481 157.429 154.705 157.204 154.929 156.98 155.153 156.745 156.2 155.57 157.023 154.587 157.867 153.701 157.909 153.658 157.963 153.615 158.016 153.573L158.038 153.53 158.102 153.487C158.155 153.434 158.208 153.38 158.273 153.316 158.978 152.601 159.661 151.96 160.356 151.276 160.409 151.212 160.462 151.148 160.526 151.084L160.569 151.02 160.612 150.977C160.665 150.923 160.719 150.87 160.783 150.806 161.488 150.09 162.203 149.407 162.908 148.723 162.908 148.712 162.908 148.702 162.908 148.68 162.93 148.659 163.005 148.627 163.037 148.595 163.047 148.573 163.058 148.541 163.079 148.509L163.122 148.467C163.816 147.804 164.628 147.153 166.273 145.689 166.53 145.476 166.775 145.262 167.021 145.038 167.267 144.803 167.662 144.707 167.982 144.824 168.303 144.942 168.634 145.048 168.965 145.155 175.417 147.537 182.905 152.034 191.888 157.984 200.455 163.678 211.308 164.692 220.783 160.697 221.744 160.291 222.086 160.078 221.894 160.153 231.347 156.286 238.258 147.965 240.32 137.956 242.467 127.477 244.592 119.124 247.455 112.853 247.476 112.8 247.509 112.747 247.541 112.683 247.626 112.49 247.605 112.49 247.669 112.373 247.669 112.383 247.519 112.586 247.498 112.618 247.669 112.309 247.818 111.988 247.979 111.678 248.128 111.347 248.459 111.123 248.833 111.112 249.154 111.102 249.474 111.091 249.794 111.07 251.546 110.973 252.817 110.888 254.024 110.856L254.067 110.856 254.313 110.856C255.36 110.845 256.385 110.845 257.4 110.856 257.571 110.856 257.752 110.856 257.923 110.856 258.938 110.845 259.899 110.845 260.861 110.856 260.957 110.856 261.096 110.856 261.192 110.856 262.378 110.888 263.574 110.963 265.304 111.07 265.636 111.091 265.977 111.102 266.309 111.112 266.682 111.123 267.014 111.337 267.163 111.678 267.345 112.084 267.526 112.49 267.729 112.886 270.571 119.124 272.654 127.391 274.779 137.881 276.819 147.922 283.752 156.275 293.248 160.142 293.419 160.206 293.857 160.42 294.519 160.708 303.983 164.714 314.815 163.71 323.392 158.038 332.376 152.098 339.767 147.633 346.134 145.273 346.177 145.262 346.241 145.209 346.283 145.187 346.615 145.091 346.946 144.984 347.266 144.878 347.704 144.707 348.035 144.76 348.292 145.006 348.516 145.219 348.729 145.433 348.964 145.636 350.075 146.629 351.047 147.505 351.966 148.392 352.03 148.456 352.094 148.52 352.158 148.584L352.201 148.627 352.351 148.755C352.372 148.776 352.393 148.808 352.415 148.841 352.895 149.311 353.568 150.026 354.455 150.923 354.626 151.105 354.786 151.276 354.957 151.447 355.085 151.586 355.213 151.714 355.352 151.842 355.438 151.917 355.512 151.938 355.577 152.013 356.111 152.536 356.559 153.028 356.954 153.434 356.976 153.434 356.976 153.434 356.997 153.434L357.264 153.679C357.916 154.363 358.525 155.186 359.977 156.809 360.202 157.055 360.447 157.301 360.682 157.536 360.928 157.792 360.96 158.198 360.853 158.497 360.779 158.721 360.704 158.956 360.64 159.181 360.597 159.277 360.533 159.373 360.49 159.469 358.076 165.985 353.6 173.494 347.704 182.435 342.053 190.98 341.028 201.801 345.012 211.244 345.14 211.543 345.269 211.874 345.45 212.312 349.296 221.829 357.66 228.783 367.711 230.834 378.179 232.981 386.554 235.086 392.813 237.948 392.877 237.97 392.92 238.002 392.984 238.034 393.177 238.119 393.155 238.098 393.273 238.162 393.251 238.162 393.048 238.012 393.006 237.991 393.326 238.162 393.657 238.311 393.988 238.472 394.32 238.621 394.522 238.974 394.533 239.348 394.555 239.668 394.576 239.989 394.597 240.309 394.704 242.029 394.779 243.246 394.811 244.443 394.811 244.528 394.811 244.614 394.811 244.689 394.811 244.721 394.811 244.795 394.811 244.838 394.822 245.842 394.822 246.846 394.811 247.861 394.811 247.925 394.811 248 394.811 248.075 394.811 248.149 394.811 248.224 394.811 248.299 394.822 249.314 394.822 250.318 394.811 251.322 394.811 251.354 394.811 251.407 394.811 251.45 394.811 251.536 394.811 251.621 394.811 251.696 394.779 252.882 394.704 254.131 394.597 255.851 394.576 256.172 394.555 256.492 394.533 256.812 394.522 257.186 394.32 257.517 393.988 257.667 393.657 257.827 393.326 257.998 393.006 258.169 393.048 258.148 393.251 258.009 393.273 257.998 393.145 258.052 393.166 258.03 392.984 258.126 392.92 258.148 392.877 258.169 392.813 258.19 386.554 261.053 378.19 263.179 367.711 265.326 358.258 267.27 350.268 273.562 346.155 282.289L372.069 308.203C370.51 305.714 369.014 303.214 367.359 300.715 366.066 298.739 365.831 296.25 366.771 294.081 366.963 293.633 367.145 293.184 367.337 292.703 368.213 290.535 370.136 288.943 372.432 288.473 383.189 286.273 393.465 283.88 402.705 279.65 402.769 279.618 402.812 279.586 402.876 279.565 403.217 279.404 403.378 279.372 403.442 279.351L403.506 279.308C403.549 279.287 403.591 279.287 403.634 279.266 412.244 275.431 417.958 266.917 418.193 257.421 418.193 257.357 418.193 257.282 418.193 257.208 418.3 255.477 418.418 253.704 418.46 251.76 418.46 251.739 418.46 251.706 418.46 251.674 418.471 250.478 418.471 249.26 418.46 248.064 418.471 246.868 418.471 245.671 418.46 244.475 418.46 244.454 418.46 244.421 418.46 244.389 418.418 242.445 418.29 240.672 418.193 238.942 418.193 238.878 418.193 238.803 418.193 238.728 417.958 229.243 412.233 220.729 403.634 216.884 403.591 216.873 403.549 216.862 403.506 216.841L403.442 216.798C403.388 216.777 403.217 216.724 402.876 216.574 402.812 216.553 402.769 216.521 402.705 216.489 393.465 212.259 383.189 209.866 372.432 207.665 370.136 207.195 368.234 205.614 367.337 203.446 367.134 202.965 366.963 202.495 366.771 202.047 365.852 199.878 366.066 197.4 367.359 195.435 373.437 186.238 379.151 177.265 382.698 167.662 382.762 167.416 382.826 167.171 382.911 166.936 386.265 158.155 384.311 148.114 377.795 141.256 377.752 141.192 377.709 141.128 377.667 141.064 376.481 139.729 375.402 138.479 374.077 137.101L374.035 137.037C374.013 137.026 373.992 137.016 373.971 136.994 373.971 136.994 373.949 136.984 373.949 136.973L373.864 136.92 373.8 136.877C373.8 136.866 373.778 136.856 373.778 136.834 373.64 136.695 373.522 136.535 373.383 136.396L371.215 134.292C370.264 133.331 369.506 132.583 368.875 131.974 368.854 131.953 368.854 131.931 368.833 131.91L368.79 131.867C368.769 131.856 368.769 131.846 368.747 131.824 368.726 131.803 368.704 131.803 368.683 131.782L368.64 131.739C367.359 130.489 366.013 129.271 364.677 128.064 364.635 128.022 364.592 127.968 364.549 127.915 357.66 121.356 347.608 119.433 338.785 122.798 338.475 122.926 338.154 123.023 337.845 123.108 337.834 123.108 337.791 123.108 337.781 123.108 328.306 126.644 319.44 132.305 310.328 138.34 308.352 139.643 305.863 139.878 303.695 138.949 303.118 138.703 302.605 138.447 302.146 138.266 299.978 137.379 298.386 135.467 297.916 133.17 295.726 122.392 293.344 112.106 289.093 102.834 289.093 102.834 289.093 102.823 289.093 102.813 289.072 102.781 289.072 102.748 289.05 102.706 288.901 102.396 288.858 102.257 288.804 102.14 288.783 102.118 288.762 102.086 288.74 102.054 288.74 102.043 288.719 102.033 288.719 102.011 284.884 93.4019 276.349 87.6657 266.853 87.4307 266.789 87.4307 266.704 87.4307 266.64 87.4307 264.952 87.3346 263.221 87.1957 261.32 87.1637 261.288 87.1637 261.235 87.1637 261.192 87.1637 261.171 87.1637 261.149 87.1637 261.128 87.1637 259.985 87.153 258.799 87.153 257.646 87.1637 257.624 87.1637 257.592 87.1637 257.56 87.1637 256.396 87.153 255.221 87.153 254.057 87.1637 254.046 87.185 254.035 87.2064 254.014 87.2278L253.971 87.2278C253.96 87.2064 253.95 87.185 253.928 87.1637 253.907 87.1637 253.864 87.1637 253.843 87.1637L253.757 87.1637ZM323.777 88.3387C323.755 88.3494 323.755 88.3707 323.734 88.3814 323.862 88.6591 323.969 88.9475 324.087 89.236 323.873 88.563 323.852 88.5416 323.777 88.3387ZM416.944 93.2737C415.587 93.53 414.263 94.0321 413.162 94.7585 413.472 94.5555 412.82 94.9828 412.703 95.0682 412.66 95.1003 412.639 95.1323 412.596 95.175 410.449 96.8094 408.857 99.576 408.569 102.246L402.641 155.068C402.181 159.106 405.119 164.137 408.879 165.729 412.617 167.309 418.311 165.921 420.896 162.791L435.583 144.995C478.14 216.232 474.636 304.133 431.161 371.065L438.649 378.553C442.003 381.907 444.545 385.817 446.265 389.961 498.798 314.676 504.043 213.252 454.586 131.739L474.615 123.92C478.396 122.446 481.515 117.479 481.184 113.43 480.853 109.371 476.965 105.002 472.98 104.169L420.949 93.2737C419.689 93.0066 418.3 93.0173 416.944 93.2737ZM257.528 183.631C221.936 183.631 193.085 212.472 193.085 248.053 193.085 283.645 221.926 312.497 257.517 312.497 257.517 312.497 257.528 312.497 257.528 312.497 261.021 312.497 264.493 312.23 267.943 311.664L254.324 298.066C252.796 296.549 251.952 295.064 251.343 293.291 251.343 293.248 251.343 293.227 251.343 293.184L249.656 288.153C230.492 284.382 216.67 267.58 216.67 248.053 216.67 225.654 234.701 207.441 257.101 207.206 257.25 207.206 257.389 207.206 257.539 207.206 276.723 207.206 293.323 220.548 297.446 239.273L303.374 241.281C303.396 241.281 303.417 241.281 303.439 241.281 305.19 241.89 306.611 242.734 308.117 244.24L308.181 244.24 321.32 257.421C321.769 254.313 321.993 251.194 321.993 248.053 321.982 212.472 293.12 183.631 257.528 183.631ZM243.845 231.368C243.279 231.496 242.734 231.796 242.317 232.201 241.484 233.024 241.196 234.327 241.569 235.438L260.038 290.311C260.199 290.77 260.455 291.187 260.786 291.518L281.188 311.941 352.062 382.858 371.738 402.534 375.851 406.646 379.685 410.481C384.503 409.146 389.15 407.202 393.476 404.702L280.569 291.731 276.168 287.33 276.146 287.309C274.042 285.226 270.784 285.226 268.68 287.33 268.071 287.939 267.676 288.644 267.43 289.392L265.742 287.533 265.443 286.807C265.443 286.818 265.401 286.818 265.401 286.828L252.358 248.064C253.725 247.551 254.922 246.793 255.904 245.81 255.926 245.789 255.947 245.767 255.969 245.746 256.919 244.774 257.656 243.588 258.158 242.242L296.923 255.328 297.756 255.659 299.486 257.325C298.739 257.582 298.023 257.977 297.425 258.575 295.342 260.658 295.342 263.862 297.361 265.977L414.668 383.371C417.147 379.023 419.091 374.366 420.383 369.538L416.666 365.82 412.553 361.708 392.899 342.011 322.025 271.094 301.601 250.692C301.27 250.35 300.854 250.072 300.394 249.923L245.543 231.443C245.009 231.261 244.411 231.24 243.845 231.368ZM291.582 266.586C290.236 266.586 288.89 267.11 287.822 268.167 285.771 270.218 285.76 273.348 287.694 275.474L406.518 394.373C408.964 391.788 411.175 388.989 413.087 386.009L299.721 272.579 295.342 268.178C294.274 267.11 292.928 266.586 291.582 266.586ZM281.979 276.168C280.644 276.168 279.298 276.702 278.24 277.749 276.189 279.8 276.179 282.929 278.112 285.055L396.082 403.068C399.062 401.124 401.861 398.934 404.425 396.499L290.14 282.15 285.739 277.749 285.717 277.727C284.649 276.681 283.314 276.168 281.979 276.168ZM425.372 374.515C424.367 377.56 423.043 380.487 421.59 383.339 420.191 386.116 417.905 389.801 416.078 392.354 414.23 394.982 412.073 397.545 409.691 399.927 407.811 401.818 405.813 403.581 403.741 405.14L403.72 405.14C403.687 405.162 403.666 405.204 403.634 405.226 399.671 408.067 397.407 409.52 393.636 411.485 390.698 412.991 387.697 414.369 384.556 415.405L393.198 424.026C404.467 435.306 422.755 435.316 434.024 424.047 445.293 412.778 445.293 394.49 434.024 383.221L425.372 374.515ZM383.146 423.246C381.181 424.773 379.247 426.312 377.218 427.775 302.039 482.156 200.38 481.857 125.522 427.027 125.405 426.963 125.319 426.856 125.276 426.739L125.234 426.803C121.196 423.46 115.406 423.353 111.134 426.45 105.964 430.21 104.906 437.218 108.656 442.409 109.489 443.552 110.429 444.556 111.369 445.208L111.369 445.25C111.39 445.25 111.411 445.25 111.433 445.25 152.91 475.779 201.897 491.15 250.916 491.364 299.946 491.578 349.071 476.591 390.827 446.404 394.928 443.445 398.838 440.315 402.694 437.143 397.545 435.477 392.675 432.763 388.615 428.694L383.146 423.246ZM126.056 425.852 125.992 425.916C126.024 425.916 126.056 425.916 126.099 425.916L126.099 425.852 126.056 425.852Z" fill="#EC8839" transform="matrix(1.00359 0 0 1 3094.18 930.636)"/></g></svg>