<svg width="533" height="533" xmlns="http://www.w3.org/2000/svg" xmlns:xlink="http://www.w3.org/1999/xlink" xml:space="preserve" overflow="hidden"><defs><clipPath id="clip0"><rect x="1883" y="921" width="533" height="533"/></clipPath></defs><g clip-path="url(#clip0)" transform="translate(-1883 -921)"><path d="M297.418 396.023 314.47 378.95 326.733 391.234 309.14 408.265 297.418 396.023" fill="#008CC2" transform="matrix(1 0 0 1 1883 921)"/><path d="M238.788 455.194C235.582 458.38 230.252 458.38 226.525 455.194L201.478 430.127 189.756 442.39 214.803 467.437C219.592 472.225 226.525 474.89 232.917 474.89 239.309 474.89 245.721 472.225 251.051 467.437L300.083 418.405 287.82 406.142 238.788 455.194" fill="#008CC2" transform="matrix(1 0 0 1 1883 921)"/><path d="M23.985 300.624 130.585 194.004 186.009 249.448 259.567 260.108 248.907 186.55 193.483 130.585 300.083 23.985 508.494 232.396 232.396 509.015ZM20.2582 50.0937C20.2582 44.2431 22.3818 38.3718 26.65 34.1037L34.1037 26.65C42.64 18.1137 57.0268 18.1137 65.5631 26.65L84.7386 45.8463 45.8463 84.7386 26.65 65.5631C22.9232 61.8363 20.2582 55.965 20.2582 50.0937ZM215.865 203.602 83.1563 71.4137 96.4813 58.0887 229.19 190.277ZM71.4137 83.1563 203.602 215.324 190.277 229.19 58.0887 97.0018ZM239.309 239.309 207.87 235.061 234.52 208.411ZM300.624 0 181.761 118.863 77.8263 14.9282C70.3518 7.45367 60.2331 3.20632 50.0937 3.20632 39.975 3.20632 29.8563 7.45367 22.3818 14.9282L14.9282 22.3818C7.45367 29.8563 3.72684 39.4337 3.72684 50.0937 3.72684 60.7537 7.995 70.3518 15.4487 77.8263L119.384 181.761 0 300.624 232.396 533 533 232.396 300.624 0" fill="#008CC2" transform="matrix(1 0 0 1 1883 921)"/><path d="M402.415 278.222C388.028 292.629 368.832 300.624 348.594 300.624L312.867 300.624 258.505 348.594 252.634 342.723 302.748 286.217 305.413 283.552 348.594 283.552C364.043 283.552 379.492 277.16 390.693 265.959 398.147 258.505 402.415 248.386 402.415 238.247 402.415 216.406 384.822 198.813 362.96 198.813 352.3 198.813 342.723 203.081 335.269 210.535L329.939 215.865 317.655 203.602 322.985 198.272C333.645 187.612 348.053 181.761 362.96 181.761 393.899 181.761 419.467 207.329 419.467 238.247 418.925 253.175 413.075 267.562 402.415 278.222ZM362.96 164.689C343.264 164.689 325.13 172.163 311.284 186.009L293.15 203.602 329.398 239.85 346.97 222.257C351.259 217.989 357.11 215.865 362.96 215.865 375.244 215.865 385.363 225.984 385.363 238.247 385.363 244.118 383.239 249.969 378.95 254.237 370.955 262.232 360.295 266.5 349.115 266.5L298.48 266.5 290.485 274.495 229.19 343.264 257.443 371.497 318.738 317.655 348.053 317.655C373.1 317.655 396.564 308.078 414.137 290.485 428.003 276.639 435.457 257.964 435.457 238.788 435.998 197.751 403.477 164.689 362.96 164.689" fill="#008CC2" transform="matrix(1 0 0 1 1883 921)"/><path d="M215.865 376.827C220.654 376.827 224.401 380.574 224.401 385.363 224.401 390.152 220.654 393.899 215.865 393.899 211.076 393.899 207.329 390.152 207.329 385.363 207.329 380.574 211.076 376.827 215.865 376.827ZM190.277 385.363C190.277 399.229 201.478 410.93 215.865 410.93 230.252 410.93 241.453 399.75 241.453 385.363 241.453 370.955 230.252 359.775 215.865 359.775 201.478 359.775 190.277 371.497 190.277 385.363" fill="#008CC2" transform="matrix(1 0 0 1 1883 921)"/><path d="M285.675 68.7486 297.959 56.5063 357.11 116.198 344.847 128.461 285.675 68.7486" fill="#008CC2" transform="matrix(1 0 0 1 1883 921)"/><path d="M260.629 94.3368 272.892 82.0736 332.063 141.245 319.8 153.508 260.629 94.3368" fill="#008CC2" transform="matrix(1 0 0 1 1883 921)"/><path d="M235.061 119.925 247.304 107.662 306.475 166.833 294.212 179.096 235.061 119.925" fill="#008CC2" transform="matrix(1 0 0 1 1883 921)"/><path d="M116.198 247.304 128.461 235.061 213.2 319.8 200.937 332.063 116.198 247.304" fill="#008CC2" transform="matrix(1 0 0 1 1883 921)"/><path d="M90.61 272.35 102.873 260.108 187.612 344.847 175.89 357.11 90.61 272.35" fill="#008CC2" transform="matrix(1 0 0 1 1883 921)"/><path d="M65.5631 297.959 77.8263 285.675 162.565 370.435 150.302 382.698 65.5631 297.959" fill="#008CC2" transform="matrix(1 0 0 1 1883 921)"/></g></svg>