<svg width="36" height="27" viewBox="0 0 36 27" fill="none" xmlns="http://www.w3.org/2000/svg">
<path d="M2.63796 0.517972C2.81374 0.16055 3.20046 -0.0445279 3.59304 0.00820646L17.9368 1.80118L32.2805 0.00820646C32.6731 -0.0386685 33.0598 0.166409 33.2356 0.517972L35.679 5.40469C36.2063 6.45352 35.6438 7.725 34.5188 8.04727L24.9446 10.7836C24.1301 11.018 23.2571 10.6723 22.8235 9.94571L17.9368 1.80118L13.0501 9.94571C12.6165 10.6723 11.7434 11.018 10.929 10.7836L1.36061 8.04727C0.229755 7.725 -0.326885 6.45352 0.200458 5.40469L2.63796 0.517972ZM18.0012 5.55118L21.218 10.9066C22.0911 12.3598 23.8313 13.0512 25.4661 12.5824L32.9368 10.4496V20.2348C32.9368 21.5238 32.0579 22.6488 30.804 22.9652L18.845 25.9535C18.2473 26.1059 17.6204 26.1059 17.0286 25.9535L5.0696 22.9652C3.81569 22.643 2.93679 21.518 2.93679 20.2289V10.4438L10.4134 12.5824C12.0423 13.0512 13.7884 12.3598 14.6614 10.9066L17.8723 5.55118H18.0012Z" fill="#3FB7AB"/>
</svg>
