<svg width="30" height="24" viewBox="0 0 30 24" fill="none" xmlns="http://www.w3.org/2000/svg">
<path d="M4.5 0C2.01562 0 0 2.01562 0 4.5V19.5C0 21.9844 2.01562 24 4.5 24H25.5C27.9844 24 30 21.9844 30 19.5V4.5C30 2.01562 27.9844 0 25.5 0H4.5ZM3 4.5C3 3.67031 3.67031 3 4.5 3H25.5C26.3297 3 27 3.67031 27 4.5V19.5C27 20.3297 26.3297 21 25.5 21H4.5C3.67031 21 3 20.3297 3 19.5V4.5ZM10.4906 8.25C10.4906 7.95453 10.4324 7.66194 10.3194 7.38896C10.2063 7.11598 10.0405 6.86794 9.83162 6.65901C9.62268 6.45008 9.37465 6.28434 9.10166 6.17127C8.82868 6.0582 8.5361 6 8.24063 6C7.94515 6 7.65257 6.0582 7.37959 6.17127C7.10661 6.28434 6.85857 6.45008 6.64963 6.65901C6.4407 6.86794 6.27497 7.11598 6.1619 7.38896C6.04882 7.66194 5.99062 7.95453 5.99063 8.25C5.99062 8.54547 6.04882 8.83806 6.1619 9.11104C6.27497 9.38402 6.4407 9.63206 6.64963 9.84099C6.85857 10.0499 7.10661 10.2157 7.37959 10.3287C7.65257 10.4418 7.94515 10.5 8.24063 10.5C8.5361 10.5 8.82868 10.4418 9.10166 10.3287C9.37465 10.2157 9.62268 10.0499 9.83162 9.84099C10.0405 9.63206 10.2063 9.38402 10.3194 9.11104C10.4324 8.83806 10.4906 8.54547 10.4906 8.25ZM4.5 14.4984C4.5 15.1875 5.05781 15.75 5.75156 15.75H8.38125C8.75625 14.1516 9.91875 12.8578 11.4375 12.3C11.0859 12.1078 10.6781 12 10.2516 12H6.99844C5.62031 12 4.5 13.1203 4.5 14.4984ZM21.6188 15.75H24.2484C24.9375 15.75 25.5 15.1922 25.5 14.4984C25.5 13.1156 24.3797 12 23.0016 12H19.7484C19.3172 12 18.9141 12.1078 18.5625 12.3C20.0812 12.8578 21.2438 14.1516 21.6188 15.75ZM17.4375 13.5469C17.2547 13.5141 17.0672 13.5 16.875 13.5H13.125C12.9328 13.5 12.7453 13.5141 12.5625 13.5469C11.3438 13.7531 10.3453 14.6109 9.94219 15.75C9.81563 16.1016 9.75 16.4813 9.75 16.875C9.75 17.4984 10.2516 18 10.875 18H19.125C19.7484 18 20.25 17.4984 20.25 16.875C20.25 16.4813 20.1844 16.1016 20.0578 15.75C19.6547 14.6109 18.6562 13.7531 17.4375 13.5469ZM24 8.25C24 7.65326 23.7629 7.08097 23.341 6.65901C22.919 6.23705 22.3467 6 21.75 6C21.1533 6 20.581 6.23705 20.159 6.65901C19.7371 7.08097 19.5 7.65326 19.5 8.25C19.5 8.84674 19.7371 9.41903 20.159 9.84099C20.581 10.2629 21.1533 10.5 21.75 10.5C22.3467 10.5 22.919 10.2629 23.341 9.84099C23.7629 9.41903 24 8.84674 24 8.25ZM15 12C15.7956 12 16.5587 11.6839 17.1213 11.1213C17.6839 10.5587 18 9.79565 18 9C18 8.20435 17.6839 7.44129 17.1213 6.87868C16.5587 6.31607 15.7956 6 15 6C14.2044 6 13.4413 6.31607 12.8787 6.87868C12.3161 7.44129 12 8.20435 12 9C12 9.79565 12.3161 10.5587 12.8787 11.1213C13.4413 11.6839 14.2044 12 15 12Z" fill="#4B4B8B"/>
</svg>
